<svg width="26" height="27" viewBox="0 0 26 27" fill="none" xmlns="http://www.w3.org/2000/svg">
<path d="M13.304 26.088C20.312 26.088 25.976 20.424 25.976 13.416C25.976 6.408 20.312 0.743999 13.304 0.743999C6.328 0.743999 0.632 6.408 0.632 13.416C0.632 20.424 6.328 26.088 13.304 26.088ZM13.304 23.88C7.512 23.88 2.84 19.208 2.84 13.416C2.84 7.624 7.512 2.952 13.304 2.952C19.096 2.952 23.768 7.624 23.768 13.416C23.768 19.208 19.096 23.88 13.304 23.88ZM13.304 22.344C18.264 22.344 22.264 18.376 22.264 13.416C22.264 8.456 18.264 4.488 13.304 4.488C8.344 4.488 4.376 8.456 4.376 13.416C4.376 18.376 8.344 22.344 13.304 22.344ZM13.304 20.136C9.56 20.136 6.584 17.16 6.584 13.416C6.584 9.672 9.56 6.696 13.304 6.696C17.048 6.696 20.056 9.672 20.056 13.416C20.056 17.16 17.048 20.136 13.304 20.136Z" fill="black"/>
</svg>
